HIERARCHY
ROOT Bip001_Pelvis
{
  OFFSET 7.937 94.8971 -8.5489
  CHANNELS 6 Xposition Yposition Zposition Zrotation Xrotation Yrotation
  JOINT Bip001_Spine
  {
    OFFSET 1.44608e-005 10.4157 -0.0118244
    CHANNELS 3 Zrotation Xrotation Yrotation
    JOINT Bip001_L_Thigh
    {
      OFFSET 11.2582 -10.4157 0.0118432
      CHANNELS 3 Zrotation Xrotation Yrotation
      JOINT Bip001_L_Calf
      {
        OFFSET -0.720717 -44.8687 0.366937
        CHANNELS 3 Zrotation Xrotation Yrotation
        JOINT Bip001_L_Foot
        {
          OFFSET -0.664439 -41.3745 -3.62995
          CHANNELS 3 Zrotation Xrotation Yrotation
          JOINT Bip001_L_Toe0
          {
            OFFSET 0.0541047 -10.4146 13.4033
            CHANNELS 3 Zrotation Xrotation Yrotation
            End Site
            {
              OFFSET -1.04503e-005 0 7.70137
            }
          }
        }
      }
    }
    JOINT Bip001_R_Thigh
    {
      OFFSET -11.2582 -10.4156 0.0118122
      CHANNELS 3 Zrotation Xrotation Yrotation
      JOINT Bip001_R_Calf
      {
        OFFSET 0.72059 -44.8687 0.36676
        CHANNELS 3 Zrotation Xrotation Yrotation
        JOINT Bip001_R_Foot
        {
          OFFSET 0.664321 -41.3745 -3.62979
          CHANNELS 3 Zrotation Xrotation Yrotation
          JOINT Bip001_R_Toe0
          {
            OFFSET -0.05417 -10.4146 13.4033
            CHANNELS 3 Zrotation Xrotation Yrotation
            End Site
            {
              OFFSET -1.04873e-005 0 7.70137
            }
          }
        }
      }
    }
    JOINT Bip001_Spine1
    {
      OFFSET 1.90638e-005 14.8539 1.10727
      CHANNELS 3 Zrotation Xrotation Yrotation
      JOINT Bip001_Spine2
      {
        OFFSET 2.28934e-005 14.7848 -1.7233
        CHANNELS 3 Zrotation Xrotation Yrotation
        JOINT Bip001_Neck
        {
          OFFSET 2.24514e-005 15.6905 -0.498826
          CHANNELS 3 Zrotation Xrotation Yrotation
          JOINT Bip001_L_Clavicle
          {
            OFFSET 6.17691 -0.000591152 0.00852867
            CHANNELS 3 Zrotation Xrotation Yrotation
            JOINT Bip001_L_UpperArm
            {
              OFFSET 11.773 -0.0611878 0.00197697
              CHANNELS 3 Zrotation Xrotation Yrotation
              JOINT Bip001_L_Forearm
              {
                OFFSET 26.4515 0.0817568 -2.19579
                CHANNELS 3 Zrotation Xrotation Yrotation
                JOINT Bip001_L_Hand
                {
                  OFFSET 32.8677 0.156744 1.67112
                  CHANNELS 3 Zrotation Xrotation Yrotation
                  JOINT Bip001_L_Finger0
                  {
                    OFFSET 6.16268 -2.25226 6.01674
                    CHANNELS 3 Zrotation Xrotation Yrotation
                    End Site
                    {
                      OFFSET 4.30499 -1.46662 0.618148
                    }
                  }
                  JOINT Bip001_L_Finger1
                  {
                    OFFSET 11.2957 -0.718374 -0.201963
                    CHANNELS 3 Zrotation Xrotation Yrotation
                    End Site
                    {
                      OFFSET 6.31952 -0.405163 -0.0802303
                    }
                  }
                }
              }
            }
          }
          JOINT Bip001_R_Clavicle
          {
            OFFSET -6.17691 -0.000574027 0.00851165
            CHANNELS 3 Zrotation Xrotation Yrotation
            JOINT Bip001_R_UpperArm
            {
              OFFSET -11.773 -0.0611516 0.00194365
              CHANNELS 3 Zrotation Xrotation Yrotation
              JOINT Bip001_R_Forearm
              {
                OFFSET -26.4514 0.0822334 -2.19736
                CHANNELS 3 Zrotation Xrotation Yrotation
                JOINT Bip001_R_Hand
                {
                  OFFSET -32.8677 0.156817 1.67144
                  CHANNELS 3 Zrotation Xrotation Yrotation
                  JOINT Bip001_R_Finger0
                  {
                    OFFSET -6.1627 -2.25224 6.0167
                    CHANNELS 3 Zrotation Xrotation Yrotation
                    End Site
                    {
                      OFFSET -4.30499 -1.46662 0.618134
                    }
                  }
                  JOINT Bip001_R_Finger1
                  {
                    OFFSET -11.2958 -0.718344 -0.201994
                    CHANNELS 3 Zrotation Xrotation Yrotation
                    End Site
                    {
                      OFFSET -6.31952 -0.405146 -0.0802475
                    }
                  }
                }
              }
            }
          }
          JOINT Bip001_Head
          {
            OFFSET 1.11782e-005 11.4912 2.09908
            CHANNELS 3 Zrotation Xrotation Yrotation
            End Site
            {
              OFFSET 2.95144e-005 21.2823 -2.83069e-005
            }
          }
        }
      }
    }
  }
}
MOTION
Frames:	16
Frame Time:	0.04
6.11682 95.6466 -8.29336 -0.326689 -0.278307 11.2054 -0.311149 0.47555 1.41183 6.23066 -9.94816 6.22769 -0.473255 13.8085 -5.52554 -3.53534 -3.5646 -3.73807 0.53049 -9.99911 -0.273592 -6.10169 -3.08122 -2.81051 0.845745 13.3136 -0.708392 -0.963635 -8.33274 -15.4606 -0.221425 -11.4622 -0.266451 -0.668509 0.942913 2.82572 -0.668497 0.942879 2.82571 -3.24014 -3.71215 -4.00423 -27.2809 8.39063 -9.78232 -47.8816 38.3227 6.84767 14.1117 4.13776 -26.4614 -5.57155 -0.440004 -0.641538 1.59028e-015 9.54166e-015 1.59028e-015 1.59028e-015 1.27222e-014 1.59028e-015 -2.42026 4.39465 23.3248 22.6886 -25.7767 64.7431 -36.0247 3.28343 35.6783 -26.1914 9.55632 -12.8474 -0 -3.18055e-015 -0 1.59028e-015 -3.18056e-015 7.95139e-016 -0.777015 1.17928 -4.55614 
6.20926 95.6535 -8.34375 -0.389464 -0.278837 10.7945 -0.324334 0.49015 1.40938 6.27531 -9.94911 6.21063 -0.511324 13.893 -5.29661 -3.49025 -3.65921 -3.54056 0.532506 -9.9942 -0.264019 -6.1099 -3.17121 -2.64779 0.865572 13.1974 -0.610145 -0.947787 -8.17405 -15.3225 -0.185852 -11.4744 -0.250473 -0.705995 0.971603 2.82212 -0.705995 0.9716 2.82212 -2.81272 -3.72883 -4.04987 -27.4183 8.29312 -9.66589 -48.5597 39.8192 7.53328 14.0562 4.05755 -26.0332 -5.60898 -0.421088 -0.752386 -3.18055e-015 -6.36111e-015 4.77083e-015 -4.77083e-015 0 6.36111e-015 -2.02152 4.61972 23.4905 24.4256 -26.6225 65.0832 -36.9028 2.88727 39.2399 -27.2957 8.84998 -12.3918 3.18055e-015 0 -7.95139e-016 1.59028e-015 3.18056e-015 -7.95139e-016 -1.05334 1.34649 -4.42288 
6.33002 95.6688 -8.36748 -0.374278 -0.368953 10.0894 -0.292688 0.527769 1.50188 6.17899 -9.72002 6.34176 -0.476349 13.8234 -5.25176 -3.44984 -3.76082 -3.16503 0.539914 -9.98121 -0.220625 -6.28715 -3.22047 -2.6186 0.912178 13.1029 -0.399594 -0.867563 -8.03479 -14.9888 -0.206627 -11.4836 -0.192744 -0.649251 1.04701 3.00661 -0.649249 1.04701 3.0066 -2.79685 -3.82397 -4.17282 -27.8002 8.40096 -9.64049 -48.8285 40.6706 7.86155 13.9424 4.43206 -25.1662 -5.84118 -0.444559 -0.730663 -1.59028e-015 3.18055e-015 -0 1.59028e-015 9.54167e-015 -0 -0.0360622 5.28409 23.5046 27.166 -27.4278 64.5426 -41.7169 3.6475 46.7678 -29.4711 9.00023 -11.2259 7.95139e-016 -9.54166e-015 7.95139e-016 1.98626e-031 -9.54167e-015 1.19271e-015 -1.16887 1.41525 -4.50489 
6.38489 95.6733 -8.42985 -0.436662 -0.401836 9.47765 -0.244661 0.539973 1.50986 6.1916 -9.65949 6.14423 -0.544587 13.9058 -4.82693 -3.43698 -3.88644 -2.83498 0.546762 -9.97049 -0.174059 -6.3506 -3.35371 -2.75232 0.846969 13.0521 -0.225278 -0.703452 -7.91902 -14.4775 -0.271464 -11.4861 -0.110212 -0.563633 1.07258 3.0213 -0.563634 1.07258 3.0213 -2.62128 -3.85501 -4.0877 -28.0219 8.47492 -9.75098 -49.4337 40.5776 8.14127 13.8111 4.92691 -24.3954 -5.92922 -0.407386 -0.553883 -3.18055e-015 -3.18055e-015 -1.59028e-015 -1.59028e-015 3.18056e-015 -3.18055e-015 2.30581 6.00343 23.2024 34.16 -29.1155 65.2796 -47.0041 3.96719 58.877 -26.7437 9.37427 -10.4191 0 0 -3.97569e-016 3.86217e-032 3.18056e-015 -6.95746e-016 -1.30948 1.28588 -4.34248 
6.41922 95.6797 -8.4638 -0.489191 -0.446581 9.06126 -0.209345 0.55912 1.44917 6.24556 -9.58812 6.48041 -0.531856 13.9622 -4.76687 -3.42641 -3.96163 -2.76776 0.547713 -9.96882 -0.157443 -6.38455 -3.41062 -2.91961 0.776504 12.9683 -0.104659 -0.536526 -7.82837 -14.0099 -0.347037 -11.4878 -0.0219649 -0.505128 1.11183 2.89917 -0.504516 1.11186 2.89923 -2.74548 -4.01969 -3.95605 -28.077 8.68607 -9.71915 -49.8212 40.1248 8.42741 13.6938 5.20301 -23.9568 -6.04947 -0.399515 -0.477088 -1.59028e-015 -6.36111e-015 1.59028e-015 -0 -6.36111e-015 -0 6.27073 7.14368 22.1533 41.2235 -31.1381 65.3433 -45.9679 2.90986 73.6679 -20.9632 9.32847 -11.3086 7.95139e-016 6.36111e-015 -1.59028e-015 -7.95139e-016 6.36111e-015 -1.19271e-015 -1.08208 1.26046 -4.29679 
6.4562 95.6706 -8.48426 -0.463036 -0.600027 8.7117 -0.211039 0.596155 1.30283 6.2885 -9.42729 6.76257 -0.551563 14.0504 -4.62974 -3.40915 -4.04779 -2.70591 0.54581 -9.96718 -0.156907 -6.42369 -3.439 -2.75997 0.743545 13.0658 -0.161543 -0.347598 -7.86633 -13.648 -0.448838 -11.4887 0.0498247 -0.518883 1.18643 2.60602 -0.518549 1.18643 2.60609 -2.41254 -4.17397 -3.79349 -28.1619 8.80005 -9.67038 -50.6172 39.4236 8.78942 13.6183 5.33156 -23.7525 -6.0396 -0.462856 -0.290744 1.59028e-015 3.18055e-015 -1.59028e-015 -3.18055e-015 3.18056e-015 1.59028e-015 9.26936 7.94536 20.5747 47.6697 -31.9287 62.6903 -40.1489 2.07147 89.0509 -14.2924 8.95928 -12.6205 1.32417e-031 9.54166e-015 -7.95139e-016 3.18055e-015 6.36111e-015 -0 -1.4075 1.33624 -3.96887 
6.51283 95.671 -8.44659 -0.307304 -0.952815 8.30631 -0.171498 0.690691 1.14228 6.18003 -8.94524 7.00686 -0.592559 13.9176 -4.35463 -3.39288 -4.06769 -2.68973 0.544477 -9.96554 -0.156433 -6.63403 -3.30424 -2.95845 0.657587 13.2229 0.0962242 -0.179131 -7.95167 -13.1473 -0.524629 -11.489 0.119808 -0.450726 1.3769 2.28503 -0.449721 1.3769 2.28508 -2.92339 -4.24958 -3.39765 -27.9782 8.95737 -9.50842 -50.8179 39.7908 8.94907 13.3495 4.75015 -23.6918 -5.87682 -0.42223 -0.452617 5.29669e-031 -9.54166e-015 3.18055e-015 -1.59028e-015 -6.36111e-015 3.18055e-015 12.9145 8.56891 19.0818 44.2607 -29.7198 52.4771 -32.3812 -0.369509 99.7288 -8.16547 8.21166 -13.3435 3.18055e-015 -6.36111e-015 1.59028e-015 4.77083e-015 -6.36111e-015 -0 -1.03126 1.01251 -3.8116 
6.53069 95.6589 -8.41469 -0.230549 -1.15045 7.97116 -0.164926 0.718166 0.97115 6.17505 -8.65842 7.40383 -0.572141 13.9382 -4.27696 -3.41435 -4.15003 -2.69933 0.543555 -9.96388 -0.144186 -6.72372 -3.27011 -2.24462 0.786757 13.3678 -0.108174 -0.0907488 -8.06178 -13.1527 -0.638509 -11.4652 0.142191 -0.445569 1.43258 1.94234 -0.446039 1.4326 1.94233 -2.69344 -3.77765 -3.03988 -28.1032 8.64258 -9.91232 -51.2617 39.4479 9.16695 13.3929 5.05873 -23.5909 -5.76448 -0.396275 -0.754894 1.76556e-031 6.36111e-015 -1.59028e-015 8.82782e-032 3.18056e-015 -1.59028e-015 16.4152 8.71626 17.9891 39.5325 -25.6185 39.3694 -27.7577 -1.40803 108.003 -2.13745 6.76791 -11.957 -6.36111e-015 -3.18055e-015 -0 -7.95139e-015 0 -0 -0.975145 0.388609 -3.44559 
6.46782 95.6451 -8.42907 -0.270205 -1.14326 7.68028 -0.126258 0.742653 0.876835 6.28179 -8.69993 7.16606 -0.735909 14.0618 -3.80327 -3.43689 -4.24458 -2.5539 0.543696 -9.96214 -0.121238 -6.69527 -3.46249 -2.37524 0.674143 13.515 0.0188697 0.0564988 -8.12832 -12.7893 -0.748706 -11.4572 0.189386 -0.381219 1.4894 1.75272 -0.381218 1.48937 1.75272 -3.34023 -4.21165 -2.71432 -27.6275 9.12411 -9.6858 -51.2721 40.5935 8.96009 13.4825 4.41939 -23.6265 -5.99917 -0.52865 -0.545887 -1.59028e-015 -3.18055e-015 -0 1.76556e-031 -6.36111e-015 1.59028e-015 21.3737 9.90278 17.0153 34.0036 -19.1372 24.0088 -27.0357 -2.69123 112.035 2.15883 6.23867 -9.63284 1.11319e-014 -6.36111e-015 -6.36111e-015 7.95139e-015 -6.36111e-015 -3.18055e-015 -0.202465 0.668735 -3.45253 
6.42811 95.6399 -8.3854 -0.227843 -1.17772 7.41088 -0.171202 0.742191 0.84675 6.35315 -8.53527 7.08666 -0.821422 13.9983 -3.60135 -3.45513 -4.29446 -2.41133 0.546718 -9.95411 -0.0860868 -6.66909 -3.50642 -2.38124 0.61889 13.6334 0.12348 0.156006 -8.22744 -12.5901 -0.842573 -11.4387 0.215026 -0.481306 1.46255 1.69192 -0.48127 1.46255 1.69207 -2.68923 -4.2792 -2.79988 -27.9019 9.17261 -9.89317 -52.0169 40.7525 9.47717 13.7781 3.59607 -24.0918 -5.75097 -0.516463 -0.156473 1.59028e-015 0 -0 1.76556e-031 -6.36111e-015 1.59028e-015 25.8297 10.8929 16.2458 31.0962 -10.6816 9.31967 -27.0286 -2.23233 110.656 3.40367 5.89385 -7.32737 -2.38542e-015 5.96354e-015 -0 2.97939e-031 5.36719e-015 -3.18055e-015 -0.580225 0.891026 -3.27532 
6.38935 95.6371 -8.3274 -0.204205 -1.29752 7.18956 -0.178992 0.742101 0.807169 6.39129 -8.32421 7.08153 -0.824347 13.9735 -3.41886 -3.51775 -4.35335 -2.36655 0.55209 -9.94757 -0.0710691 -6.65837 -3.42551 -2.31272 0.60541 13.6707 0.0516462 0.270321 -8.30221 -12.3391 -0.945175 -11.4204 0.258475 -0.504879 1.48066 1.61288 -0.505601 1.48065 1.61298 -2.38411 -4.53328 -2.84579 -28.1084 9.40748 -9.91769 -52.3288 40.2419 9.46679 13.8357 3.30732 -24.2719 -5.54097 -0.473499 -0.142715 1.76556e-031 6.36111e-015 -1.59028e-015 5.29669e-031 9.54167e-015 -3.18055e-015 30.7907 12.1153 15.5603 30.5816 -3.52479 -2.84773 -24.3607 0.784323 104.39 3.62253 4.82622 -8.57493 1.59028e-015 7.15625e-015 3.18055e-015 1.59028e-015 7.15625e-015 3.18055e-015 -0.868493 1.30359 -3.16239 
6.36513 95.6406 -8.30209 -0.166202 -1.54189 6.52511 -0.15529 0.768682 0.780032 6.42129 -7.88977 7.31408 -0.85205 13.8681 -3.32068 -3.56895 -4.42525 -2.09319 0.571368 -9.94299 -0.0169051 -6.68567 -3.39705 -1.80047 0.630008 13.7618 -0.00181631 0.334768 -8.30064 -12.1143 -1.01134 -11.416 0.299988 -0.469658 1.5341 1.55729 -0.469289 1.53413 1.55885 -2.4113 -4.5647 -2.55009 -27.7864 9.55612 -10.1998 -52.7537 39.6207 9.33441 13.7369 3.26329 -24.5175 -5.41043 -0.504618 -0.125283 -1.59028e-015 0 1.59028e-015 -1.59028e-015 -3.18056e-015 1.59028e-015 32.1005 12.1476 15.003 36.3898 1.13548 -9.81702 -19.8449 3.9126 92.3616 6.26267 3.34678 -12.4897 -3.18055e-015 -4.37326e-015 7.95139e-016 3.97252e-031 -4.77083e-015 4.77083e-015 -0.892598 1.49567 -2.87396 
6.28814 95.6542 -8.28295 -0.449389 -2.12329 5.71514 -0.0757146 0.868941 0.768665 6.90349 -7.39292 8.15509 -0.927534 14.2009 -3.36607 -3.58412 -4.70293 -2.12708 0.574769 -9.93766 -0.0202984 -6.28636 -2.96686 -0.813662 0.601131 13.3601 -0.241206 0.282189 -7.95372 -12.0482 -0.964467 -11.4395 0.334824 -0.304584 1.73544 1.53589 -0.306712 1.73572 1.53589 -2.11021 -4.63351 -2.26732 -27.9181 9.7473 -10.5145 -52.9422 38.9475 8.93732 13.5992 3.75801 -24.3267 -5.44594 -0.452717 -0.609843 -1.76556e-031 6.36111e-015 1.59028e-015 1.59028e-015 6.36111e-015 -3.18055e-015 33.2669 12.451 14.9918 40.4553 9.48092 -13.0041 -20.1154 1.89066 75.3568 6.77334 2.31974 -14.7597 -9.54166e-015 0 1.59028e-015 -9.54166e-015 1.59028e-015 1.59028e-015 -1.16812 1.53686 -2.45636 
6.41327 95.6521 -8.16177 -0.0658338 -1.96226 5.53169 -0.130336 0.847643 0.582645 6.37982 -7.08649 7.7492 -0.893769 13.6251 -2.94732 -3.60812 -4.56553 -1.80786 0.578079 -9.93032 0.0258442 -6.87685 -3.22467 -1.80226 0.597249 13.8125 0.506011 0.440882 -8.31052 -11.4627 -1.08709 -11.4214 0.392288 -0.429837 1.69311 1.16393 -0.429562 1.69312 1.16396 -1.91707 -4.40295 -1.90561 -27.817 9.70697 -11.0331 -53.4116 39.6274 9.09095 13.3686 2.93712 -24.7822 -5.3595 -0.441936 -0.369208 4.77083e-015 0 -4.77083e-015 3.18055e-015 6.36111e-015 -3.18055e-015 33.7584 12.4 15.3429 44.8156 22.3972 -13.3467 -16.7713 -4.4509 57.6906 7.67512 2.8166 -17.8967 3.18055e-015 -3.18055e-015 3.18055e-015 3.18055e-015 0 3.18055e-015 -1.48747 1.23818 -1.99171 
6.32488 95.6479 -8.2782 -0.440203 -2.2581 4.73648 0.000509175 0.910465 0.545994 6.83946 -7.04423 7.59214 -1.1753 14.1537 -2.40312 -3.58426 -4.89835 -1.41184 0.582279 -9.91297 0.0660737 -6.50863 -3.17897 -1.26713 0.50914 13.528 0.579916 0.419664 -7.9541 -11.2683 -1.06959 -11.4369 0.428685 -0.168351 1.82015 1.08822 -0.168351 1.82015 1.08822 -2.25098 -4.2413 -1.50271 -27.7653 9.82432 -11.4898 -53.3973 41.2824 9.21781 13.3268 2.35585 -24.9789 -5.17664 -0.45559 -0.452685 -1.59028e-015 6.36111e-015 4.77083e-015 -1.59028e-015 1.27222e-014 3.18055e-015 34.0765 12.2982 15.7898 48.5419 29.4785 -14.5527 -6.37579 -14.018 47.4907 8.30779 1.62889 -20.3187 3.18055e-015 -6.36111e-015 -0 3.18055e-015 -6.36111e-015 -0 -1.46929 0.925884 -1.70014 
6.29538 95.6515 -8.30376 -0.493196 -2.36683 4.09825 0.019802 0.915278 0.546577 6.92168 -6.81234 7.57881 -1.25524 14.1307 -2.18724 -3.6023 -4.99273 -1.04314 0.588274 -9.90232 0.118203 -6.46014 -3.24961 -1.03807 0.462524 13.5346 0.690832 0.50257 -7.87968 -10.9885 -1.13303 -11.4343 0.4681 -0.140553 1.84293 1.0865 -0.140535 1.84292 1.08637 -2.01939 -4.05353 -1.3302 -28.1637 9.74068 -11.679 -52.9623 41.6878 8.93856 13.3433 2.75831 -25.1396 -5.17638 -0.483945 -0.344798 4.77083e-015 -9.54166e-015 -0 1.59028e-015 -9.54167e-015 1.59028e-015 33.8814 11.8762 15.3047 52.4144 39.297 -15.2546 3.57029 -28.9222 40.4179 5.56066 0.418935 -21.1463 -1.59028e-015 0 -7.95139e-016 -1.19271e-015 0 7.95139e-016 -1.69957 0.756877 -1.4271 
